# xmcd
#
# Track frame offsets:
#	150
#	5628
#	14971
#	26942
#	49986
#	70360
#	89196
#	103769
#	115115
#	138014
#	157516
#	188906
#	205582
#	233446
#
# Disc length: 3120 seconds
#
# Revision: 0
# Processed by: cddbd v1.5.2PL0 Copyright (c) Steve Scherf et al.
# Submitted via: audiograbber 1.83.01
#
DISCID=bc0c2e0e
DTITLE=Ben Tiggelaar - De ideeen van Kaplan en Norton over de Balanced Scorecar
DTITLE=d
DYEAR=1900
DGENRE=
TTITLE0=Welkom
TTITLE1=Wie zijn Kaplan en Norton eigenlijk
TTITLE2=De visie van Kaplan en Norton
TTITLE3=De Balanced Scorecard in vogelvlucht
TTITLE4=Het financiele perspectief
TTITLE5=Het klantenperspectief
TTITLE6=Het interne processen perspectief
TTITLE7=Het leer en groeiperspectief
TTITLE8=Het invoeren van de Balanced Scorecard
TTITLE9=De Balanced Scorecard in de praktijk
TTITLE10=Een nieuwe aanpak van strategisch management
TTITLE11=Lof en Kritiek
TTITLE12=De praktische waarde van Kaplan en Nortons ideeen
TTITLE13=Data Track
EXTD=
EXTT0=
EXTT1=
EXTT2=
EXTT3=
EXTT4=
EXTT5=
EXTT6=
EXTT7=
EXTT8=
EXTT9=
EXTT10=
EXTT11=
EXTT12=
EXTT13=
PLAYORDER=
